<svg xmlns="http://www.w3.org/2000/svg" width="96" height="96" viewBox="0 0 96 96" id="graph"><path d="M 48 0 C 21.502177 0 0 21.5022 0 48 C 0 74.4979 21.502177 96 48 96 C 74.497823 96 96 74.4979 96 48 C 96 21.5022 74.497823 0 48 0 z M 48 2 C 73.416943 2 94 22.58309 94 48 C 94 73.417 73.416943 94 48 94 C 22.583057 94 2 73.417 2 48 C 2 22.58309 22.583057 2 48 2 z M 44 25 L 44 68 L 52 68 L 52 25 L 44 25 z M 68 33 L 68 68 L 76 68 L 76 33 L 68 33 z M 32 36 L 32 68 L 40 68 L 40 36 L 32 36 z M 56 46 L 56 68 L 64 68 L 64 46 L 56 46 z M 20 51 L 20 68 L 28 68 L 28 51 L 20 51 z M 19.035156 69 C 18.462053 69 18 69.431297 18 69.966797 L 18 70.033203 C 18 70.568699 18.462053 71 19.035156 71 L 20 71 L 28 71 L 76.964844 71 C 77.537947 71 78 70.568703 78 70.033203 L 78 69.966797 C 78 69.431301 77.537947 69 76.964844 69 L 76 69 L 68 69 L 64 69 L 56 69 L 52 69 L 44 69 L 40 69 L 32 69 L 28 69 L 20 69 L 19.035156 69 z "></path></svg>